<svg data-name="Component 51 – 1" xmlns="http://www.w3.org/2000/svg" width="30.252" height="25.789" viewBox="0 0 30.252 25.789">
    <defs>
        <clipPath id="ju7owvtzia">
            <path data-name="Rectangle 1834" style="fill:none" d="M0 0h30.252v25.789H0z"/>
        </clipPath>
    </defs>
    <g data-name="Group 44" style="clip-path:url(#ju7owvtzia)">
        <path data-name="Path 191" d="M24.759 18.111c-.169-5.281-4.95-10.753-12.417-10.753a12.185 12.185 0 0 0-9.079 3.93A12.455 12.455 0 0 0 .05 20.9a12.256 12.256 0 0 0 12.04 11.156h.024a2.039 2.039 0 0 0 1.745-3.356 1.99 1.99 0 0 1-.362-2.36 2.182 2.182 0 0 1 2.127-1.183c.906 0 1.838.013 2.731-.044a6.465 6.465 0 0 0 6.4-7M2.942 16.856a2.177 2.177 0 1 1 2.177 2.171 2.176 2.176 0 0 1-2.177-2.171m2.9 7.959a2.171 2.171 0 1 1 2.177-2.171 2.176 2.176 0 0 1-2.177 2.171m3.628-10.13a2.171 2.171 0 1 1 2.177-2.171 2.176 2.176 0 0 1-2.177 2.171m5.805 0a2.171 2.171 0 1 1 2.177-2.171 2.176 2.176 0 0 1-2.177 2.171m4.354 4.341a2.171 2.171 0 1 1 2.177-2.171 2.176 2.176 0 0 1-2.177 2.171" transform="translate(0 -6.267)" style="fill:#85add6"/>
        <path data-name="Path 192" d="M142.18.382a1.308 1.308 0 0 0-.913-.382h-.015a1.314 1.314 0 0 0-.48.09 1.4 1.4 0 0 0-.427.273c-.287.265-3.718 3.566-8.41 8.1l2.33 2.046c4.439-4.628 7.671-8.01 7.936-8.295a1.346 1.346 0 0 0 .272-.423 1.309 1.309 0 0 0-.293-1.409" transform="translate(-112.313 .001)" style="fill:#1073c0"/>
        <path data-name="Path 193" d="M101.239 55.824h-.115a3.128 3.128 0 0 0-1.8.6 7.159 7.159 0 0 0-1.34 1.676 4.329 4.329 0 0 1-2.348 1.346c.514 1.354 2.422 1.908 3.673 1.938h.136a4.084 4.084 0 0 0 3.768-1.915 2.506 2.506 0 0 0-1.973-3.65" transform="translate(-81.412 -47.544)" style="fill:#464655"/>
    </g>
</svg>
