<svg data-name="Component 41 – 1" xmlns="http://www.w3.org/2000/svg" width="31.249" height="21.738" viewBox="0 0 31.249 21.738">
    <path data-name="Path 79" d="m3.848 10.689-.307.757-.141-.058-.57-.23a3.053 3.053 0 0 1-2.606-.92.827.827 0 0 1 .6-1.4h2a.748.748 0 0 1 .724.937l-.187.717.41.167z" transform="translate(0 -3.799)" style="fill:#474955"/>
    <path data-name="Path 80" d="M6.428 31.022V32a1.181 1.181 0 0 1-1.181 1.181h-2.06A1.182 1.182 0 0 1 2.006 32v-4.929a1.186 1.186 0 0 1 .119-.518c.041.318.087.629.131.93a20.582 20.582 0 0 0 .575 2.686 1.178 1.178 0 0 0 1.132.853z" transform="translate(-.852 -11.446)" style="fill:#474955"/>
    <path data-name="Path 81" d="m6.359 12.03-.307.757-.137-.058c.1-.208.23-.455.375-.73z" transform="translate(-2.512 -5.151)" style="fill:#0073c6"/>
    <path data-name="Path 82" d="M51.822 20.861c0 .006 0 .006-.006.012v-.012z" transform="translate(-21.728 -8.952)" style="fill:#85add6"/>
    <path data-name="Path 83" d="M51.816 20.861v.012c.006-.006.006-.006.006-.012z" transform="translate(-21.728 -8.952)" style="fill:#85add6"/>
    <path data-name="Path 84" d="M50.766 10.239a3.053 3.053 0 0 1-2.607.921l-.568.23-.137.058-.308-.757.071-.029.41-.166-.187-.716a.748.748 0 0 1 .724-.937h2a.827.827 0 0 1 .6 1.4z" transform="translate(-19.746 -3.8)" style="fill:#474955"/>
    <path data-name="Path 85" d="M48.563 27.071V32a1.181 1.181 0 0 1-1.181 1.181h-2.06A1.182 1.182 0 0 1 44.141 32v-.982H46.6a1.177 1.177 0 0 0 1.132-.853 20.374 20.374 0 0 0 .575-2.686c.044-.3.089-.612.131-.93a1.17 1.17 0 0 1 .119.518z" transform="translate(-18.469 -11.446)" style="fill:#474955"/>
    <path data-name="Path 86" d="m47.591 12.735-.137.058-.308-.757.071-.029c.143.276.27.524.375.731z" transform="translate(-19.746 -5.154)" style="fill:#0073c6"/>
    <path data-name="Path 87" d="m15.826 17.694.316-.873h10.664l.064.889 1.339 2.362.82 1.116-7.57.478-7.391-1 .213-.694z" transform="translate(-5.836 -7.24)" style="fill:#474955"/>
    <path data-name="Path 88" d="M30.445 8.343v-.006s-.127-.265-.349-.7l-.138.058-.31-.764.07-.03A26.709 26.709 0 0 0 25.75.956a2.3 2.3 0 0 0-1.3-.6Q23.942.3 23.426.254C21.483.071 19.629-.005 17.879 0s-3.607.071-5.547.254a51.97 51.97 0 0 0-1.024.107 2.3 2.3 0 0 0-1.3.6A26.585 26.585 0 0 0 6.041 6.9l.07.028-.311.762-.138-.058c-.221.433-.349.7-.349.7v.005c-.018.1-.156 1.594 6.864 2.212h.006c2.857.251 4.615.325 5.7.323s2.841-.071 5.7-.323h.006c7.02-.617 6.88-2.108 6.864-2.212zm-12.554-1.02a73.668 73.668 0 0 1-10.354-.7 10.066 10.066 0 0 1 3.109-5.61h14.478a10.074 10.074 0 0 1 3.109 5.61 73.668 73.668 0 0 1-10.354.7z" transform="translate(-2.255)" style="fill:#1073c0"/>
    <path data-name="Path 89" d="M30.905 18.172v-.012h.006a5.4 5.4 0 0 0-1.15-2.923A5.1 5.1 0 0 0 29 14.5v.006a3.9 3.9 0 0 1 .366 3.74 21.181 21.181 0 0 0-5.675.742 10.33 10.33 0 0 0-.436.1 37.492 37.492 0 0 1-6.145.84 12.934 12.934 0 0 1-1.336 0 37.492 37.492 0 0 1-6.145-.84 16.18 16.18 0 0 0-.436-.1 21.152 21.152 0 0 0-5.669-.742 3.879 3.879 0 0 1 .36-3.734V14.5a5.1 5.1 0 0 0-.761.736 5.461 5.461 0 0 0-1.15 2.923 13.723 13.723 0 0 0 .122 3.274c.041.316.087.627.128.932a21.516 21.516 0 0 0 .577 2.688 1.2 1.2 0 0 0 1.144.852h4.418a.826.826 0 0 0 .488-.161l.209-.15a.7.7 0 0 1 .424-.138h13.912a.709.709 0 0 1 .43.138l.2.15a.839.839 0 0 0 .488.161h4.417a1.189 1.189 0 0 0 1.144-.852 20.526 20.526 0 0 0 .581-2.687c.046-.3.087-.616.134-.932a13.626 13.626 0 0 0 .116-3.262M6.939 22.729a.421.421 0 0 1-.023.081l-.482 1.122-.3.719a.436.436 0 0 1-.4.265H4.052a.427.427 0 0 1-.43-.426v-2.354a.427.427 0 0 1 .43-.426.452.452 0 0 1 .087.012l2.294.466.174.035a.426.426 0 0 1 .331.506m15.276 1.858a.259.259 0 0 1-.145.023l-5.627-.01-5.623.006a.254.254 0 0 1-.285-.219.245.245 0 0 1 .023-.144c.209-.345.418-.69.627-1.041a.281.281 0 0 1 .256-.132q2.5.009 5 .012t5-.012a.3.3 0 0 1 .261.132c.2.345.412.7.622 1.041a.253.253 0 0 1-.11.339m6.616.328h-1.676a.423.423 0 0 1-.395-.265l-.308-.719-.482-1.122a.43.43 0 0 1 .232-.564c.023-.006.052-.017.081-.023l.168-.035 2.294-.466a.412.412 0 0 1 .517.414l.006 2.347a.437.437 0 0 1-.436.432" transform="translate(-.818 -6.329)" style="fill:#85add6"/>
    <path data-name="Rectangle 39" style="fill:none" d="M0 0h31.249v21.738H0z"/>
</svg>
