<svg xmlns="http://www.w3.org/2000/svg" width="25" height="27.568" viewBox="0 0 25 27.568">
    <path data-name="Path 499" d="M182 235.509a1.436 1.436 0 0 1-1-1.384v-2.643h-5.508v2.643a1.436 1.436 0 0 1-1 1.384l-.671.189v4.452h8.849v-4.45z" transform="translate(-165.747 -219.018)" style="fill:#85add6"/>
    <path data-name="Path 500" d="M271.2 231.48v3.962a1.49 1.49 0 0 0 .92 1.361.621.621 0 0 0 .08.024l2.607.814V235.7l-.671-.189a1.436 1.436 0 0 1-1-1.384v-2.647H271.2z" transform="translate(-257.88 -219.016)" style="fill:#0373c0"/>
    <path data-name="Path 501" d="M48.847 309.128a5.284 5.284 0 0 0-3.791-5.069l-5.07-1.581a.455.455 0 0 0-.449.1l-3.19 3.023-3.19-3.023a.455.455 0 0 0-.449-.1l-5.07 1.581a5.284 5.284 0 0 0-3.791 5.069v3.567a1.046 1.046 0 0 0 1.046 1.046H47.8a1.046 1.046 0 0 0 1.046-1.046v-3.567z" transform="translate(-23.847 -286.173)" style="fill:#85add6"/>
    <path data-name="Path 502" d="M298.693 307.242q-.075-.2-.166-.386a5.28 5.28 0 0 0-2.865-2.657q-.2-.078-.413-.14l-5.07-1.581a.455.455 0 0 0-.449.1l-1.452 1.376 4.512 1.407c2.248.662 3.791 1.973 3.791 4.316v4.059H298a1.046 1.046 0 0 0 1.046-1.046v-3.567a5.276 5.276 0 0 0-.353-1.881z" transform="translate(-274.041 -286.172)" style="fill:#0373c0"/>
    <path data-name="Path 503" d="M147.973 11.433h-.353v-1.4a4.823 4.823 0 0 0-1.633-3.664 5.3 5.3 0 0 0-7.08 0 4.823 4.823 0 0 0-1.633 3.664v1.4h-.353a.936.936 0 0 0-.936.936v1.038a.936.936 0 0 0 .936.936h.354a4.813 4.813 0 0 0 1.632 3.555 5.3 5.3 0 0 0 7.08 0 4.813 4.813 0 0 0 1.632-3.555h.354a.936.936 0 0 0 .936-.936v-1.038a.936.936 0 0 0-.936-.936z" transform="translate(-129.947 -4.739)" style="fill:#85add6"/>
    <path data-name="Path 504" d="M244.681 11.433h-.353v-1.4a4.822 4.822 0 0 0-1.628-3.669 5.422 5.422 0 0 0-3.54-1.356 5.538 5.538 0 0 0-.959.093 5.481 5.481 0 0 1 2.581 1.263 4.823 4.823 0 0 1 1.633 3.664v4.314a4.814 4.814 0 0 1-1.632 3.555 5.481 5.481 0 0 1-2.581 1.263 5.539 5.539 0 0 0 .959.093A5.422 5.422 0 0 0 242.7 17.9a4.813 4.813 0 0 0 1.632-3.555h.354a.936.936 0 0 0 .936-.936v-1.04a.936.936 0 0 0-.941-.936z" transform="translate(-226.656 -4.739)" style="fill:#0373c0"/>
    <path data-name="Path 505" d="M154.869.841 151.626.1a3.835 3.835 0 0 0-1.745 0l-3.042.724a2.547 2.547 0 0 0-1.957 2.478v3.44h11.966V3.323a2.547 2.547 0 0 0-1.979-2.482z" transform="translate(-138.364)" style="fill:#85add6"/>
    <path data-name="Path 506" d="M241.356.841 238.112.1a3.835 3.835 0 0 0-1.745 0l-.078.019 3.131.718a2.547 2.547 0 0 1 1.98 2.486v3.419h1.936V3.323a2.547 2.547 0 0 0-1.98-2.482z" transform="translate(-224.85)" style="fill:#0373c0"/>
    <path data-name="Path 507" d="M155.422 107.187a15.289 15.289 0 0 0-9.118 0 .969.969 0 0 1-1.218-.677l-.207-.768a16.7 16.7 0 0 1 11.966 0l-.206.768a.969.969 0 0 1-1.217.677z" transform="translate(-138.363 -99)" style="fill:#3b3f4c"/>
    <g data-name="Group 728">
        <path data-name="Path 508" d="M414.84 422.4a.417.417 0 0 0-.417.417v4.407h.834v-4.404a.417.417 0 0 0-.417-.42z" transform="translate(-393.394 -399.66)" style="fill:#0373c0"/>
        <path data-name="Path 509" d="M82.514 422.4a.417.417 0 0 0-.417.417v4.407h.834v-4.404a.417.417 0 0 0-.417-.42z" transform="translate(-78.961 -399.66)" style="fill:#0373c0"/>
    </g>
    <path data-name="Path 510" d="M226.174 356.829a.417.417 0 0 1-.381-.248l-1.246-2.821a.417.417 0 1 1 .763-.337l.864 1.957.864-1.957a.417.417 0 0 1 .762.337l-1.246 2.821a.417.417 0 0 1-.38.248z" transform="translate(-213.707 -334.158)" style="fill:#005a98"/>
    <g data-name="Group 729">
        <path data-name="Path 511" d="m151.749 302.583 3.19 3.023-1.967.67a1.257 1.257 0 0 1-1.351-.362l-2.433-2.777 2.113-.659a.455.455 0 0 1 .448.105z" transform="translate(-142.439 -286.173)" style="fill:#005a98"/>
        <path data-name="Path 512" d="m259.19 302.583-3.19 3.023 1.967.67a1.257 1.257 0 0 0 1.351-.362l2.433-2.777-2.113-.659a.455.455 0 0 0-.448.105z" transform="translate(-243.5 -286.173)" style="fill:#005a98"/>
    </g>
    <path data-name="Path 513" d="M234.046 412.6a1.325 1.325 0 0 0-1.3-1.324 1.349 1.349 0 0 0-1.35 1.354v2.545a.19.19 0 0 0 .19.19h1.044a.19.19 0 0 0 .19-.19v-1.254a1.324 1.324 0 0 0 1.226-1.321z" transform="translate(-220.222 -389.129)" style="fill:#fff"/>
</svg>
