<svg data-name="Component 57 – 1" xmlns="http://www.w3.org/2000/svg" width="28.208" height="24.551" viewBox="0 0 28.208 24.551">
    <defs>
        <clipPath id="m0hk39pzda">
            <path data-name="Rectangle 1833" style="fill:none" d="M0 0h28.208v24.551H0z"/>
        </clipPath>
    </defs>
    <g data-name="Group 42" style="clip-path:url(#m0hk39pzda)">
        <path data-name="Path 185" d="M23.57 33.535a.586.586 0 0 1-.587.585h-9.4a.585.585 0 1 1 0-1.169h1.26l.249-1.754.251-1.755h5.878l.251 1.755.252 1.755h1.26a.585.585 0 0 1 .587.583" transform="translate(-4.176 -9.568)" style="fill:#1073c0"/>
        <path data-name="Path 186" d="M0 25.548v1.27a1.954 1.954 0 0 0 1.956 1.945h24.295a1.951 1.951 0 0 0 1.957-1.945v-1.27zm14.1 2.308a.7.7 0 1 1 .7-.7.7.7 0 0 1-.7.7" transform="translate(0 -8.303)" style="fill:#464655"/>
        <path data-name="Path 187" d="M28.208 2.03v13.885H0V2.03A1.994 1.994 0 0 1 1.956 0h24.295a1.991 1.991 0 0 1 1.957 2.026" style="fill:#85add6"/>
        <path data-name="Rectangle 1832" transform="translate(.001 15.915)" style="fill:#1073c0" d="M0 0h28.206v1.33H0z"/>
        <path data-name="Path 188" d="M11.831 7.856v2.033L8.578 11.2v.053l3.253 1.307v2.033l-5.708-2.512v-1.716z" transform="translate(-1.968 -2.553)" style="fill:#fff"/>
        <path data-name="Path 189" d="M18.874 14.6h-2.4l3.438-9.429h2.416z" transform="translate(-5.295 -1.682)" style="fill:#fff"/>
        <path data-name="Path 190" d="M27.035 14.59v-2.033l3.253-1.307v-.05l-3.253-1.311V7.856l5.708 2.508v1.717z" transform="translate(-8.691 -2.553)" style="fill:#fff"/>
    </g>
</svg>
