<svg data-name="Component 43 – 1" xmlns="http://www.w3.org/2000/svg" width="31.102" height="22.315" viewBox="0 0 31.102 22.315">
    <path data-name="Path 90" d="M38.483 50.824a.532.532 0 0 1-.531.532h-8.51a.532.532 0 0 1 0-1.063h1.14l.228-1.6.227-1.6h5.319l.227 1.6.228 1.6h1.14a.53.53 0 0 1 .531.531" transform="translate(-17.854 -29.042)" style="fill:#1073c0"/>
    <path data-name="Path 91" d="M8.129 40.87v1.155a1.77 1.77 0 0 0 1.764 1.77h21.918a1.767 1.767 0 0 0 1.764-1.77V40.87zm12.723 2.1a.637.637 0 1 1 .635-.637.635.635 0 0 1-.635.637" transform="translate(-5.009 -25.198)" style="fill:#464655"/>
    <path data-name="Path 92" d="M33.575 1.847v12.631H8.129V1.847A1.807 1.807 0 0 1 9.893 0h21.918a1.8 1.8 0 0 1 1.764 1.847" transform="translate(-5.009)" style="fill:#85add6"/>
    <path data-name="Rectangle 40" transform="translate(3.121 14.464)" style="fill:#1073c0" d="M0 0h25.446v1.21H0z"/>
    <path data-name="Path 93" d="M8.151 38.408H1.144A1.144 1.144 0 0 1 0 37.265V27.231a1.144 1.144 0 0 1 1.144-1.144h7.007a1.144 1.144 0 0 1 1.144 1.144v10.034a1.144 1.144 0 0 1-1.144 1.144" transform="translate(0 -16.093)" style="fill:#1073c0"/>
    <path data-name="Path 94" d="M9.389 38.909H1.5a.205.205 0 0 1-.205-.206v-9.21a.205.205 0 0 1 .205-.206h7.889a.206.206 0 0 1 .206.206V38.7a.206.206 0 0 1-.206.206" transform="translate(-.796 -18.065)" style="fill:#fff"/>
    <path data-name="Path 95" d="M71.381 30.91H67a.67.67 0 0 0-.672.672v9.128a.669.669 0 0 0 .672.668h4.376a.669.669 0 0 0 .672-.668v-9.128a.67.67 0 0 0-.672-.672m.342 9.784a.292.292 0 0 1-.292.292h-4.471a.292.292 0 0 1-.292-.292V31.6a.292.292 0 0 1 .292-.292h.706a.49.49 0 0 0 .488.426h2.088a.49.49 0 0 0 .487-.426h.706a.292.292 0 0 1 .292.292z" transform="translate(-40.951 -19.065)" style="fill:#1073c0"/>
    <path data-name="Path 96" d="M72.252 32.232v9.1a.292.292 0 0 1-.292.292h-4.475a.292.292 0 0 1-.292-.292v-9.1a.292.292 0 0 1 .292-.292h.706a.49.49 0 0 0 .487.426h2.088a.49.49 0 0 0 .488-.426h.706a.292.292 0 0 1 .292.292" transform="translate(-41.481 -19.7)" style="fill:#464655"/>
    <path data-name="Path 97" d="M72.252 32.232v9.1a.292.292 0 0 1-.292.292h-4.475a.292.292 0 0 1-.292-.292v-9.1a.292.292 0 0 1 .292-.292h.706a.49.49 0 0 0 .487.426h2.088a.49.49 0 0 0 .488-.426h.706a.292.292 0 0 1 .292.292" transform="translate(-41.481 -19.7)" style="fill:#fff"/>
    <path data-name="Rectangle 41" style="fill:none" d="M0 0h31.101v22.315H0z"/>
</svg>
