<svg data-name="Component 53 – 1" xmlns="http://www.w3.org/2000/svg" width="29.089" height="27.618" viewBox="0 0 29.089 27.618">
    <path data-name="Path 130" d="M109.414.639v.752a.639.639 0 0 1-.639.639h-.907a.572.572 0 0 0-.572.572v2.83h-2.033V1.068a1.057 1.057 0 0 1 1.052-1.057L108.772 0a.639.639 0 0 1 .642.639zm0 0" transform="translate(-86.3)" style="fill:#0373c0"/>
    <path data-name="Path 132" d="M21.548 88.531h11.6a1.031 1.031 0 0 1 .9.556l1.145 2.113H19.508l1.138-2.111a1.031 1.031 0 0 1 .902-.558zm0 0" transform="translate(-7.219 -83.507)" style="fill:#4d4e59"/>
    <path data-name="Path 134" d="M59.583 459.2h8.223a.749.749 0 0 0 .639-.343l.807-1.3H58.137l.807 1.3a.75.75 0 0 0 .639.343zm0 0" transform="translate(-43.484 -431.585)" style="fill:#85add6"/>
    <path data-name="Path 135" d="m17.434 178.684.183 3.579.444 10.955a1.578 1.578 0 0 0 1.551 1.51h11.382a1.579 1.579 0 0 0 1.577-1.511l.627-14.535zm0 0" transform="translate(-5.106 -168.638)" style="fill:#0373c0"/>
    <path data-name="Path 136" d="m17.43 178.684.133 2.88.122.471.373 11.184a1.577 1.577 0 0 0 1.518 1.509 1.593 1.593 0 0 1-.049-.33l-.613-14.19a.331.331 0 0 1 .33-.345h13.9l.051-1.179zm0 0" transform="translate(-5.103 -168.638)" style="fill:#005a98"/>
    <path data-name="Path 137" d="M37.35 232.23a28.621 28.621 0 0 1-15.382-3.121l.311 7.208a28.994 28.994 0 0 0 14.831 1.471zm0 0" transform="translate(-9.516 -216.135)" style="fill:#85add6"/>
    <path data-name="Path 138" d="M.727 132.63h16.46a.727.727 0 0 0 .727-.727v-1.657a.727.727 0 0 0-.727-.727H.727a.727.727 0 0 0-.727.727v1.654a.727.727 0 0 0 .727.73zm0 0" transform="translate(11.175 -122.17)" style="fill:#3b3f4c"/>
    <path data-name="Path 139" d="M229 355.568h13.481a1.38 1.38 0 0 0 1.38-1.38V352.8a1.38 1.38 0 0 0-1.38-1.38H229a1.38 1.38 0 0 0-1.38 1.38v1.39a1.38 1.38 0 0 0 1.38 1.378zm0 0" transform="translate(-227.621 -331.507)" style="fill:#945b44"/>
    <path data-name="Path 140" d="M229 355.568h13.481a1.38 1.38 0 0 0 1.38-1.38V352.8a1.38 1.38 0 0 0-1.38-1.38H229a1.38 1.38 0 0 0-1.38 1.38v1.39a1.38 1.38 0 0 0 1.38 1.378zm0 0" transform="translate(-227.621 -331.507)" style="fill:#3b3f4c"/>
    <path data-name="Path 141" d="M230.5 422.418h11.548a2.315 2.315 0 0 0 2.315-2.315v-.8a.758.758 0 0 0-.759-.759h-14.662a.758.758 0 0 0-.758.759v.8a2.315 2.315 0 0 0 2.316 2.315zm0 0" transform="translate(-228.151 -394.802)" style="fill:#85add6"/>
    <path data-name="Path 144" d="M229.439 242.922a6.777 6.777 0 0 1 3.761-3.763 9.773 9.773 0 0 1 7.994 0 6.777 6.777 0 0 1 3.761 3.763 4.541 4.541 0 0 1 .275 1.59.582.582 0 0 1-.584.579h-14.9a.582.582 0 0 1-.584-.579 4.542 4.542 0 0 1 .277-1.59zm0 0" transform="translate(-229.076 -224.798)" style="fill:#0373c0"/>
</svg>
