<svg xmlns="http://www.w3.org/2000/svg" width="181.138" height="186.447" viewBox="0 0 181.138 186.447">
    <g data-name="Group 772">
        <path data-name="Path 824" d="m194.43 39.246 4.922 14.7c12.83 13.759 22.178 25.416 28.042 35.712 18.746 32.915-7.921 66.342-43.635 65.742-35.714.6-62.381-32.828-43.636-65.743 5.864-10.3 15.212-21.953 28.042-35.712l4.935-14.683-12.018-12.022a7.546 7.546 0 0 1 9.418-11.682 3.88 3.88 0 0 0 5.887-2.438 7.545 7.545 0 0 1 14.747 0 3.879 3.879 0 0 0 5.886 2.438 7.576 7.576 0 0 1 9.417 1.011 7.568 7.568 0 0 1 0 10.671z" transform="translate(-89.108 -7.176)" style="fill-rule:evenodd;fill:#1073c0"/>
        <path data-name="Path 827" d="M210.921 107.5h32.757a7.342 7.342 0 1 0 0-14.685h-32.757a7.342 7.342 0 1 0 0 14.685z" transform="translate(-132.648 -60.732)" style="fill:#85add6;fill-rule:evenodd"/>
        <path data-name="Path 828" d="M299.475 107.5h4.171a7.342 7.342 0 1 0 0-14.685h-4.171a7.342 7.342 0 1 1 0 14.685z" transform="translate(-192.617 -60.731)" style="fill-rule:evenodd;fill:#1073c0"/>
        <g data-name="Component 68 – 2">
            <text data-name="$" transform="translate(81.83 107.101)" style="font-size:56px;font-family:HelveticaNeue-Medium,Helvetica Neue;font-weight:500;fill:#85add6"><tspan x="0" y="0">$</tspan></text>
        </g>
    </g>
    <g data-name="Group 773">
        <path data-name="Path 829" d="m48.312 322.041 35.5-20.565c6.662-3.86 13.436-6.6 20.758-4.221 8.164 2.647 21.495 8.332 35.09 10.784a9.86 9.86 0 0 1 6.819 11.812c-1.373 5.124-5.7 7.766-11.812 6.821l4.753.761a22.125 22.125 0 0 0 15.214-2.65l34.123-19.883c26.528-15.45 30.425 8.319 21.6 13.749l-61.934 38.136a22.71 22.71 0 0 1-18.391 2.593l-44.917-12.031-16.636 9.605a6.719 6.719 0 0 1-9.16-2.454L45.866 331.2a6.718 6.718 0 0 1 2.447-9.155z" transform="translate(-33.465 -188.021)" style="fill:#85add6;fill-rule:evenodd"/>
        <path data-name="Path 830" d="M253.984 350.577c-1.9 3.707-5.806 5.5-11 4.7-7.359-1.946-14.709-3.941-22.061-5.911a3.692 3.692 0 1 1 1.911-7.132z" transform="translate(-141.783 -216.62)" style="fill-rule:evenodd;fill:#1073c0"/>
        <path data-name="Path 832" d="m33.23 333.337 28.151 49.741a5.04 5.04 0 0 1-1.9 6.848l-9.575 5.419a5.039 5.039 0 0 1-6.848-1.9l-28.15-49.739a5.04 5.04 0 0 1 1.9-6.848l9.575-5.419a5.039 5.039 0 0 1 6.848 1.9z" transform="translate(-14.261 -209.546)" style="fill-rule:evenodd;fill:#1073c0"/>
        <path data-name="Path 833" d="m69.927 367.513 4.983 8.8 4.927 8.706a5.039 5.039 0 0 1-1.883 6.839l3.421-1.936a5.039 5.039 0 0 0 1.9-6.848l-4.944-8.735L68.4 356.8l-9.938-17.56-3.342-5.905a5.045 5.045 0 0 0-5.852-2.327l5.786 10.224 9.927 17.541 4.944 8.735z" transform="translate(-36.152 -209.547)" style="fill:#464655;fill-rule:evenodd"/>
        <path data-name="Path 834" d="M41.278 354.773a3.419 3.419 0 1 0 3.877 2.888 3.419 3.419 0 0 0-3.877-2.888z" transform="translate(-29.327 -224.521)" style="fill:#85add6;fill-rule:evenodd"/>
    </g>
</svg>
