<svg data-name="Component 45 – 1" xmlns="http://www.w3.org/2000/svg" width="27.234" height="27.755" viewBox="0 0 27.234 27.755">
    <path data-name="Path 61" d="m27.282 122.046-.222.114-1.281-.444-1.683.7-1.696 4.815-.125.355a.585.585 0 0 0 .552.779h1.051a.586.586 0 0 0 .285-.074l.019-.012a.571.571 0 0 0 .054-.037.588.588 0 0 0 .141-.158l3.427-5.664z" transform="translate(-18.383 -100.61)" style="fill:#4c3b40"/>
    <path data-name="Path 62" d="M108.119 128.995c.008-.019.011-.039.016-.059a.567.567 0 0 0 .02-.082.58.58 0 0 0-.027-.273l-1.818-5.167-.7-.494-.293.241-.947-.241-1.77.494 3.427 5.664a.585.585 0 0 0 .5.282h1.051a.582.582 0 0 0 .531-.344c0-.007.008-.014.011-.021" transform="translate(-84.79 -101.605)" style="fill:#4c3b40"/>
    <path data-name="Path 63" d="M33.785 7.555V2.14A2.141 2.141 0 0 0 31.644 0H17.223a2.14 2.14 0 0 0-2.14 2.139v5.416l-2 6.689h22.698zm-4.63-4.432a.983.983 0 1 1-.984.983.982.982 0 0 1 .984-.983m0 4.765a.983.983 0 1 1-.984.983.982.982 0 0 1 .984-.983m-4.721-4.765a.983.983 0 1 1-.984.983.983.983 0 0 1 .984-.983m0 4.765a.983.983 0 1 1-.984.983.983.983 0 0 1 .984-.983m-4.721-4.765a.983.983 0 1 1-.984.983.983.983 0 0 1 .984-.983m0 4.765a.983.983 0 1 1-.984.983.983.983 0 0 1 .984-.983" transform="translate(-10.815 -.001)" style="fill:#0173c6"/>
    <path data-name="Path 64" d="M27.183 37.7a1.149 1.149 0 0 0-1.1-.808h-1.967a1.15 1.15 0 0 0-1.15 1.15v6.22a1.593 1.593 0 0 1-1.593 1.593H5.861a1.593 1.593 0 0 1-1.593-1.593v-6.22a1.149 1.149 0 0 0-1.15-1.15H1.15A1.15 1.15 0 0 0 0 38.042v8.565a5.7 5.7 0 0 0 2.09 4.417c.065.053.131.1.2.155l.056.041c.051.037.1.074.154.11l.08.053.139.089.088.053.138.079.092.05.143.073.091.045c.052.025.105.048.158.071l.081.036q.107.045.216.085l.028.011q.124.046.251.085l.072.021c.061.018.122.036.183.052l.094.023.167.039.1.02.165.029.1.016.172.022.1.011c.063.006.127.01.191.014l.083.006c.092 0 .185.007.278.007h15.812a5.713 5.713 0 0 0 5.713-5.713v-8.565a1.147 1.147 0 0 0-.052-.342" transform="translate(0 -30.5)" style="fill:#85add6"/>
    <path data-name="Path 65" d="M41.7 72.868H26.182a1.592 1.592 0 0 0-1.592 1.593v1.882a1.592 1.592 0 0 0 .068.458v.008c0 .012.008.025.012.037l.036.1.021.047.04.084.025.046.05.083.025.038c.027.039.054.076.084.113l.005.006c.028.034.058.067.089.1l.033.032c.023.022.047.044.071.064l.04.033.074.056.041.028c.03.02.06.038.091.056l.03.018c.041.022.084.043.128.061l.033.013c.033.013.067.026.1.037l.048.014c.031.009.062.017.094.024l.052.011c.033.006.067.011.1.015l.047.006c.05 0 .1.008.15.008H41.7a1.593 1.593 0 0 0 1.593-1.593v-1.885a1.593 1.593 0 0 0-1.593-1.593" transform="translate(-20.321 -60.232)" style="fill:#4c3b40"/>
    <path data-name="Rectangle 35" style="fill:none" d="M0 0h27.234v27.755H0z"/>
</svg>
