<svg data-name="Component 47 – 1" xmlns="http://www.w3.org/2000/svg" width="33" height="28.447" viewBox="0 0 33 28.447">
    <defs>
        <clipPath id="62dzhtdjea">
            <path data-name="Rectangle 2088" style="fill:none" d="M0 0h33v28.447H0z"/>
        </clipPath>
    </defs>
    <g data-name="Group 717" style="clip-path:url(#62dzhtdjea)">
        <path data-name="Path 438" d="M22.858 12.4a.5.5 0 0 1-.5-.5V7.14A1.74 1.74 0 0 1 24.1 5.4h1.685a.959.959 0 1 0 0-1.919H24.1a1.741 1.741 0 0 1-1.74-1.737V.5a.5.5 0 0 1 1 0v1.244a.744.744 0 0 0 .743.743h1.685a1.955 1.955 0 1 1 0 3.91H24.1a.744.744 0 0 0-.743.743v4.76a.5.5 0 0 1-.499.5z" transform="translate(-6.358 -.001)" style="fill:#3b3f4c"/>
        <path data-name="Path 439" d="M5.042 16.782v4.373l8.274-6.276-1.462-1.279a2.061 2.061 0 0 0-2.146-.359c-1.24.515-2.635 1.239-3.568 1.745a2.084 2.084 0 0 0-1.098 1.796z" transform="translate(-1.434 -3.721)" style="fill:#3b3f4c"/>
        <path data-name="Path 440" d="M36.684 14.983c-.933-.506-2.328-1.23-3.568-1.745a2.061 2.061 0 0 0-2.146.359l-1.461 1.281 8.274 6.276v-4.373a2.084 2.084 0 0 0-1.099-1.798z" transform="translate(-8.391 -3.72)" style="fill:#3b3f4c"/>
        <path data-name="Path 441" d="M33 25.67c-.128-6.4-7.466-11.561-16.5-11.561S.131 19.268 0 25.67v.342a6.623 6.623 0 0 0 9.721 5.677c6.012-3.056 7.542-3.056 13.553 0A6.623 6.623 0 0 0 33 26.012v-.342z" transform="translate(0 -4.012)" style="fill:#85add6"/>
        <path data-name="Path 442" d="M32.906 28.755a6.625 6.625 0 0 1-9.629 4.732c-6.012-3.056-7.542-3.056-13.554 0a6.624 6.624 0 0 1-9.629-4.732A8.432 8.432 0 0 0 0 29.834v.341a6.623 6.623 0 0 0 9.721 5.678c6.012-3.056 7.542-3.056 13.554 0A6.624 6.624 0 0 0 33 30.176v-.341a8.563 8.563 0 0 0-.094-1.08z" transform="translate(0 -8.177)" style="fill:#0373c0"/>
        <path data-name="Path 443" d="M21.588 14.109a23.037 23.037 0 0 0-3.7.3 3.711 3.711 0 0 0 7.391 0 23.037 23.037 0 0 0-3.7-.3" transform="translate(-5.087 -4.012)" style="fill:#0373c0"/>
        <path data-name="Path 444" d="M34.565 21.147a1.134 1.134 0 1 1-1.134 1.134 1.133 1.133 0 0 1 1.134-1.134" transform="translate(-9.506 -6.013)" style="fill:#fff"/>
        <path data-name="Path 445" d="M34.565 29.814a1.134 1.134 0 1 1-1.134 1.134 1.133 1.133 0 0 1 1.134-1.134" transform="translate(-9.506 -8.478)" style="fill:#fff"/>
        <path data-name="Path 446" d="M38.9 25.48a1.134 1.134 0 1 1-1.134 1.134A1.133 1.133 0 0 1 38.9 25.48" transform="translate(-10.738 -7.245)" style="fill:#fff"/>
        <path data-name="Path 447" d="M30.232 25.48a1.134 1.134 0 1 1-1.132 1.134 1.133 1.133 0 0 1 1.134-1.134" transform="translate(-8.274 -7.245)" style="fill:#fff"/>
        <path data-name="Path 448" d="M12.507 24.455h-1.373a.164.164 0 0 1-.164-.164v-1.373a.646.646 0 0 0-.646-.646h-1.2a.646.646 0 0 0-.646.646v1.373a.164.164 0 0 1-.165.164H6.939a.646.646 0 0 0-.646.646v1.2a.646.646 0 0 0 .646.646h1.372a.164.164 0 0 1 .165.164v1.373a.646.646 0 0 0 .646.646h1.2a.646.646 0 0 0 .646-.646v-1.371a.164.164 0 0 1 .164-.164h1.373a.646.646 0 0 0 .646-.646V25.1a.646.646 0 0 0-.644-.645z" transform="translate(-1.789 -6.333)" style="fill:#fff"/>
    </g>
</svg>
