<svg data-name="Component 54 – 1" xmlns="http://www.w3.org/2000/svg" width="27.012" height="29.361" viewBox="0 0 27.012 29.361">
    <defs>
        <clipPath id="f2o2fe8ssa">
            <path data-name="Rectangle 2090" style="fill:none" d="M0 0h27.012v29.361H0z"/>
        </clipPath>
    </defs>
    <g data-name="Group 719" style="clip-path:url(#f2o2fe8ssa)">
        <path data-name="Path 449" d="m29.114 9.71-.168-.03c-2.112.111-7.488.888-8.114 5.893a.328.328 0 0 0 .318.337c6.513.6 8.158-3.967 8.541-5.627l-.1-.178z" transform="translate(-3.257 -1.513)" style="fill:#85add6"/>
        <path data-name="Path 450" d="M15.549 15.573c-.629-5.029-6.023-5.787-8.114-5.893l-.392.127-.249.272-.1.2c.391 1.677 2.056 6.225 8.542 5.626a.327.327 0 0 0 .317-.336" transform="translate(-1.046 -1.513)" style="fill:#85add6"/>
        <path data-name="Path 451" d="M18.848.5h-.575a.807.807 0 0 0-.144.09c-1.087 1.848-3.576 7.051.436 10.524h.014C22.6 7.631 20.1 2.423 19.014.587A1.1 1.1 0 0 0 18.848.5z" transform="translate(-2.558 -.078)" style="fill:#85add6"/>
        <path data-name="Path 452" d="M27.168 8.15c-.124 0-.274.008-.444.017a50.113 50.113 0 0 0-8.344 5.766 5.6 5.6 0 0 0-.89 1V.509c-.092-.157-.175-.29-.242-.4a.237.237 0 0 0-.4 0c-.067.107-.15.241-.243.4v14.348a5.594 5.594 0 0 0-.837-.925 50.115 50.115 0 0 0-8.344-5.766c-.17-.009-.32-.014-.445-.017a.328.328 0 0 0-.358.354c.015.078.034.166.057.265a49.566 49.566 0 0 1 8.5 5.828 4.055 4.055 0 0 1 1.422 2.567v1.108a.443.443 0 0 0 .887 0v-.1a.434.434 0 0 0 .046-.272 2.28 2.28 0 0 1-.019-.288v-.031a3.978 3.978 0 0 1 1.454-2.98 49.6 49.6 0 0 1 8.5-5.827c.023-.1.042-.187.057-.265a.329.329 0 0 0-.359-.354" transform="translate(-1.035)" style="fill:#0373c0"/>
        <path data-name="Path 453" d="m23.239 26.507-2.712-2.162a10.628 10.628 0 0 0-7.074-2.3 4.668 4.668 0 0 0-2.617.931c-.073.056-.145.111-.217.169L7.907 25.3l9.342 4.473 6.227-2.973z" transform="translate(-1.236 -3.445)" style="fill:#0373c0"/>
        <path data-name="Path 454" d="M20.887 24.417 23.6 26.58l.207.151 3.44-1.648-2.712-2.163a10.674 10.674 0 0 0-12.435-.593 10.659 10.659 0 0 1 8.789 2.091" transform="translate(-1.892 -3.222)" style="fill:#3b3f4c"/>
        <path data-name="Path 455" d="M7.277 28.283a1.349 1.349 0 0 1 1.307-.275l3.725 1.2a2.756 2.756 0 0 0 1.286.177l7.416-.761a3.129 3.129 0 0 0 1.932-1.729c.249-.538.472-1.044.472-1.044l-.094-.207-.927.487a6.26 6.26 0 0 1-2.7.72l.027-.44a1.77 1.77 0 0 0-.172-.9 1.7 1.7 0 0 0-1.266-.941l-3.562-.432a4.566 4.566 0 0 1-1.949-.855 14.156 14.156 0 0 0-2.7-1.166 4.773 4.773 0 0 0-3.7.434L1.355 25.37l3.271 5.217z" transform="translate(-.212 -3.428)" style="fill:#85add6"/>
        <path data-name="Path 456" d="m1.373 26-.019.01.037.059z" transform="translate(-.212 -4.064)" style="fill:#ffcbbe"/>
        <path data-name="Path 457" d="M27.626 25.184a1.021 1.021 0 0 0-1.46-.3l-2.26 1.188s-.224.506-.472 1.044a3.132 3.132 0 0 1-1.934 1.732l-7.416.761a2.745 2.745 0 0 1-1.286-.177l-3.725-1.2a1.349 1.349 0 0 0-1.307.275l-2.672 2.326.78 1.244 2.146-1.9a1.3 1.3 0 0 1 1.26-.265l3.593 1.155a2.652 2.652 0 0 0 1.24.17l7.154-.734a2.68 2.68 0 0 0 1.249-.462l4.939-3.4a1.157 1.157 0 0 0 .171-1.457" transform="translate(-.796 -3.861)" style="fill:#0373c0"/>
        <path data-name="Path 458" d="M17.195 27.917h.03l4.88-.32.027-.44a1.861 1.861 0 0 0-.025-.444l-4.94.32a.443.443 0 0 0 .029.885z" transform="translate(-2.619 -4.176)" style="fill:#fff"/>
        <path data-name="Rectangle 2089" d="M.98 0h.886a.98.98 0 0 1 .98.98V8.2a.981.981 0 0 1-.981.981H.98A.98.98 0 0 1 0 8.2V.98A.98.98 0 0 1 .98 0z" transform="rotate(-29.997 40.362 11.42)" style="fill:#3b3f4c"/>
    </g>
</svg>
