<svg data-name="Component 50 – 1" xmlns="http://www.w3.org/2000/svg" width="29.653" height="26.127" viewBox="0 0 29.653 26.127">
    <g data-name="Group 27">
        <g data-name="Group 25">
            <path data-name="Path 118" d="M156.787 37.332a.926.926 0 0 1-.925-.925v-3.348a.722.722 0 0 0-.721-.721h-5.1a.722.722 0 0 0-.721.721v3.348a.925.925 0 1 1-1.851 0v-3.348a2.575 2.575 0 0 1 2.572-2.572h5.1a2.574 2.574 0 0 1 2.572 2.572v3.348a.926.926 0 0 1-.926.925z" transform="translate(-138.935 -30.487)" style="fill:#3b3f4c"/>
        </g>
        <g data-name="Group 26">
            <path data-name="Path 119" d="M0 188.24v11.9a2.654 2.654 0 0 0 2.653 2.66h18.9a2.654 2.654 0 0 0 2.653-2.655v-11.9z" transform="translate(0 -179.109)" style="fill:#85add6"/>
            <path data-name="Path 120" d="M364.363 109.5h-3.781a2.655 2.655 0 0 1 2.655 2.654v13.8a2.655 2.655 0 0 1-2.655 2.654h3.781a2.655 2.655 0 0 0 2.655-2.654v-13.8a2.655 2.655 0 0 0-2.655-2.654z" transform="translate(-339.704 -104.92)" style="fill:#85add6"/>
            <path data-name="Path 121" d="M24.205 118.5v-6.348a2.654 2.654 0 0 0-2.653-2.655H2.653A2.654 2.654 0 0 0 0 112.154V114a4.81 4.81 0 0 0 4.808 4.812H22.5a4.8 4.8 0 0 0 1.7-.31z" transform="translate(0 -104.92)" style="fill:#0373c0"/>
            <path data-name="Path 122" d="M364.363 109.5h-3.781a2.655 2.655 0 0 1 2.655 2.655v6.545a4.813 4.813 0 0 0 3.781-4.7v-1.847a2.655 2.655 0 0 0-2.655-2.653z" transform="translate(-339.704 -104.92)" style="fill:#0373c0"/>
        </g>
    </g>
    <path data-name="Path 123" d="M85.225 240.013a1.241 1.241 0 0 1-1.241-1.241v-2.884a1.241 1.241 0 1 1 2.482 0v2.884a1.241 1.241 0 0 1-1.241 1.241z" transform="translate(-79.12 -222.822)" style="fill:#f4fbff"/>
    <g data-name="Group 31">
        <g data-name="Group 30" transform="translate(10.905 7.379)">
            <path data-name="Path 125" d="M0 0h1.8v3.773H0z" transform="rotate(45 -8.965 13.757)" style="fill:#3b3f4c"/>
            <path data-name="Path 126" d="m193.916 389.456-1.656-1.657-.516.184-2.846 2.846a1.406 1.406 0 1 0 1.988 1.988l2.846-2.846z" transform="translate(-188.485 -374.482)" style="fill:#3b3f4c"/>
            <path data-name="Path 127" d="m247.5 375.767-1.231-1.231a.536.536 0 0 0-.758 0l-.805.805 1.988 1.988.805-.805a.536.536 0 0 0 .001-.757z" transform="translate(-241.448 -361.84)" style="fill:#4d4e59"/>
            <circle data-name="Ellipse 4" cx="6.972" cy="6.972" transform="translate(4.804)" style="fill:#3b3f4c" r="6.972"/>
            <path data-name="Path 129" d="M4.93 0A4.93 4.93 0 1 1 0 4.93 4.93 4.93 0 0 1 4.93 0z" transform="translate(6.846 2.042)" style="fill:#fff"/>
            <path data-name="Path 128" d="M364.445 194.69a4.931 4.931 0 0 0-5.376-1.068 4.931 4.931 0 0 1 0 9.108 4.93 4.93 0 0 0 5.376-8.04z" transform="translate(-349.182 -191.204)" style="fill:#bed8fb;opacity:.231"/>
        </g>
    </g>
</svg>
