<svg data-name="Component 58 – 1" xmlns="http://www.w3.org/2000/svg" width="24.552" height="24.552" viewBox="0 0 24.552 24.552">
    <g data-name="Group 726">
        <g data-name="Group 30">
            <path data-name="Path 125" d="M0 0h2.359v4.941H0z" transform="rotate(45 -11.74 18.017)" style="fill:#3b3f4c"/>
            <path data-name="Path 126" d="m195.6 389.969-2.169-2.169-.676.241-3.727 3.727a1.841 1.841 0 1 0 2.6 2.6l3.727-3.727z" transform="translate(-188.485 -370.36)" style="fill:#85add6"/>
            <path data-name="Path 127" d="m248.364 376.2-1.612-1.612a.7.7 0 0 0-.992 0l-1.054 1.055 2.6 2.6 1.055-1.055a.7.7 0 0 0 .003-.988z" transform="translate(-240.439 -357.958)" style="fill:#1073c0"/>
            <circle data-name="Ellipse 4" cx="9.131" cy="9.131" transform="translate(6.291)" style="fill:#1073c0" r="9.131"/>
            <path data-name="Path 129" d="M6.456 0A6.456 6.456 0 1 1 0 6.456 6.456 6.456 0 0 1 6.456 0z" transform="translate(8.965 2.674)" style="fill:#fff"/>
            <path data-name="Path 128" d="M366.109 195.137a6.457 6.457 0 0 0-7.041-1.4 6.458 6.458 0 0 1 0 11.927 6.457 6.457 0 0 0 7.041-10.529z" transform="translate(-346.122 -190.572)" style="fill:#bed8fb;opacity:.231"/>
        </g>
    </g>
    <g data-name="Group 748" transform="translate(12.833 5.202)">
        <path data-name="Path 592" d="M179.523 167.659a.528.528 0 0 1-.528-.528v-1.414a.528.528 0 0 1 .528-.528 1.734 1.734 0 1 0-1.734-1.735.528.528 0 1 1-1.056 0 2.79 2.79 0 1 1 3.318 2.74v.936a.528.528 0 0 1-.528.529z" transform="translate(-176.733 -160.666)" style="fill:#3b3f4c"/>
        <circle data-name="Ellipse 129" cx=".528" cy=".528" transform="translate(2.262 7.917)" style="fill:#3b3f4c" r=".528"/>
    </g>
</svg>
