<svg data-name="Component 55 – 1" xmlns="http://www.w3.org/2000/svg" width="27.411" height="26.961" viewBox="0 0 27.411 26.961">
    <defs>
        <clipPath id="u76pofsdra">
            <path data-name="Rectangle 2091" style="fill:none" d="M0 0h27.411v26.961H0z"/>
        </clipPath>
    </defs>
    <g data-name="Group 721" style="clip-path:url(#u76pofsdra)">
        <path data-name="Path 459" d="M19.269 30.932c-.869.868-10.05 5.026-16.969 6.73a1.853 1.853 0 0 1-2.246-2.245c1.7-6.919 5.864-16.1 6.73-16.969z" transform="translate(0 -10.756)" style="fill:#85add6"/>
        <path data-name="Path 460" d="M15.968 18.15c.907-.907 4.437 1.152 7.883 4.6s5.506 6.976 4.6 7.883-4.437-1.152-7.883-4.6-5.506-6.976-4.6-7.883" transform="translate(-9.185 -10.457)" style="fill:#0373c0"/>
        <path data-name="Path 461" d="M10.245 50.886a.929.929 0 1 1-.929.929.929.929 0 0 1 .929-.929" transform="translate(-5.431 -29.668)" style="fill:#fff"/>
        <path data-name="Path 462" d="M24.625 15.9a.465.465 0 0 1-.329-.794l2.957-2.956c1.59-1.591 1.793-2.807.658-3.942a2.151 2.151 0 0 0-1.932-.733 2.715 2.715 0 0 0-1.354.733.465.465 0 0 1-.657-.657 3.621 3.621 0 0 1 1.85-.992 3.034 3.034 0 0 1 2.75.992c1.526 1.526 1.3 3.294-.657 5.257l-2.956 2.957a.464.464 0 0 1-.329.136" transform="translate(-13.898 -3.805)" style="fill:#3b3f4c"/>
        <path data-name="Path 463" d="M44.123 32.828a.465.465 0 0 1-.329-.793 2.186 2.186 0 0 0 0-3.285 1.964 1.964 0 0 0-1.976-.659 4.645 4.645 0 0 0-1.966 1.316l-2.628 2.628a.465.465 0 0 1-.657-.657l2.628-2.628a5.5 5.5 0 0 1 2.387-1.558 2.854 2.854 0 0 1 2.87.9 3.1 3.1 0 0 1 0 4.6.462.462 0 0 1-.329.136" transform="translate(-21.24 -15.801)" style="fill:#3b3f4c"/>
        <path data-name="Path 464" d="M40.048 9.838a.465.465 0 0 1-.329-.792c.122-.123 2.956-3.037.623-5.952a.465.465 0 1 1 .726-.579c2.855 3.569-.655 7.155-.691 7.189a.461.461 0 0 1-.329.134z" transform="translate(-23.078 -1.352)" style="fill:#0373c0"/>
        <path data-name="Path 465" d="M50.418 16.681a1.394 1.394 0 1 1-1.394 1.394 1.394 1.394 0 0 1 1.394-1.394" transform="translate(-28.582 -9.725)" style="fill:#0373c0"/>
        <path data-name="Path 466" d="M34.354 0a.929.929 0 1 1-.929.929.929.929 0 0 1 .929-.929" transform="translate(-19.488)" style="fill:#3b3f4c"/>
        <path data-name="Path 467" d="M51.718 4.736a.465.465 0 0 1-.465-.465v-.464a.465.465 0 1 1 .929 0v.465a.465.465 0 0 1-.465.465" transform="translate(-29.882 -1.948)" style="fill:#3b3f4c"/>
        <path data-name="Path 468" d="M54.41 7.615h-.465a.465.465 0 1 1 0-.929h.465a.465.465 0 1 1 0 .929" transform="translate(-31.181 -3.898)" style="fill:#3b3f4c"/>
        <path data-name="Path 469" d="M51.718 10.308a.465.465 0 0 1-.465-.465v-.464a.465.465 0 1 1 .929 0v.465a.465.465 0 0 1-.465.465" transform="translate(-29.882 -5.197)" style="fill:#3b3f4c"/>
        <path data-name="Path 470" d="M48.839 7.615h-.465a.465.465 0 1 1 0-.929h.465a.465.465 0 1 1 0 .929" transform="translate(-27.933 -3.898)" style="fill:#3b3f4c"/>
        <path data-name="Path 471" d="M60.631 23.678a.465.465 0 0 1-.465-.465v-.465a.465.465 0 1 1 .929 0v.465a.465.465 0 0 1-.465.465" transform="translate(-35.078 -12.992)" style="fill:#3b3f4c"/>
        <path data-name="Path 472" d="M63.324 26.557h-.464a.465.465 0 1 1 0-.929h.464a.465.465 0 1 1 0 .929" transform="translate(-36.378 -14.942)" style="fill:#3b3f4c"/>
        <path data-name="Path 473" d="M60.631 29.25a.465.465 0 0 1-.465-.465v-.465a.465.465 0 1 1 .929 0v.465a.465.465 0 0 1-.465.465" transform="translate(-35.078 -16.241)" style="fill:#3b3f4c"/>
        <path data-name="Path 474" d="M57.753 26.557h-.465a.465.465 0 1 1 0-.929h.465a.465.465 0 1 1 0 .929" transform="translate(-33.13 -14.942)" style="fill:#3b3f4c"/>
        <path data-name="Path 475" d="M19.866 38.063a90.317 90.317 0 0 1-4.149 1.756c-.228-.139-.469-.3-.72-.47a25.849 25.849 0 0 1-2.648-2.044 31.828 31.828 0 0 1-1.273-1.2q-.746-.743-1.357-1.459a25.145 25.145 0 0 1-2.356-3.176 82.615 82.615 0 0 1 1.761-4.149 21.38 21.38 0 0 0 1.687 2.746 26.551 26.551 0 0 0 2.481 2.983c.13.144.269.284.413.428a27.056 27.056 0 0 0 2.281 2.039 23.268 23.268 0 0 0 3.88 2.546z" transform="translate(-4.293 -15.929)" style="fill:#0373c0"/>
        <path data-name="Path 476" d="M5.086 56.714c-.952.293-1.891.553-2.787.776a1.852 1.852 0 0 1-2.245-2.245c.223-.9.483-1.835.776-2.787a27.657 27.657 0 0 0 4.256 4.256z" transform="translate(0 -30.584)" style="fill:#0373c0"/>
    </g>
</svg>
