<svg xmlns="http://www.w3.org/2000/svg" width="134.741" height="190.971" viewBox="0 0 134.741 190.971">
    <path data-name="Path 666" d="M119.4 227.3c-.784 1.791-1.678 3.692-2.462 5.595-.672 1.678-12.644 3.357-13.315 5.035-.9 2.126 9.511 4.141 8.617 6.154a144.241 144.241 0 0 0-5.819 18.389l-1.007 4.364H29.325l-1.007-4.364a144.009 144.009 0 0 0-5.818-18.386c-.559-1.454 9.96-2.91 9.4-4.364-.9-2.238-13.093-4.588-14.1-6.826-.782-1.9-1.678-3.8-2.462-5.707-13.2-30.1-28.2-64.229 3.581-88.062a37.692 37.692 0 0 0 7.049-6.938L67.37 121l41.4 11.19a37.7 37.7 0 0 0 7.05 6.938c31.78 23.833 16.787 57.962 3.58 88.172zm0 0" transform="translate(0 -75.868)" style="fill:#85add6"/>
    <path data-name="Path 668" d="M135.625 136h11.19v33.569h-11.19zm0 0" transform="translate(-85.038 -85.273)" style="fill:#3b3f4c"/>
    <path data-name="Path 669" d="M152.429 94.569h-82.8a38.383 38.383 0 0 0 5.93-11.19 34.454 34.454 0 0 0 1.791-11.19l33.681-10.63 1.9-.559 31.778 11.19a34.454 34.454 0 0 0 1.791 11.19 38.352 38.352 0 0 0 5.929 11.189zm0 0" transform="translate(-43.655 -38.248)" style="fill:#0373c0"/>
    <path data-name="Path 671" d="m154.1 18.6-3.8 15.814a36.537 36.537 0 0 0-1.456 11.19H81.482a37.215 37.215 0 0 0-1.456-11.19L76.223 18.6zm0 0" transform="translate(-47.792 -11.663)" style="fill:#85add6"/>
    <path data-name="Path 673" d="m122.41 204.7-16.785 16.785V263h33.569v-41.516zm0 0" transform="translate(-66.228 -128.349)" style="fill:#3b3f4c"/>
    <path data-name="Path 674" d="M146.864 402.19c-1.566 3.692-3.245 7.5-4.7 11.19h-16.9v-11.19h-11.19v11.19H80.509v-11.19H69.32v11.19h-16.9c-1.456-3.693-3.133-7.5-4.7-11.19h10.41V391H91.7v11.19h11.19V391h33.569v11.19zm0 0" transform="translate(-29.922 -245.161)" style="fill:#0373c0"/>
    <path data-name="Path 675" d="M219.789 402.19h10.406c-1.566 3.692-3.245 7.5-4.7 11.19H208.6v-11.19h-11.19v11.19h-16.785v-11.19h5.595V391h33.569zm0 0" transform="translate(-113.253 -245.161)" style="fill:#0373c0"/>
    <path data-name="Path 677" d="M45.625 0h100.707v11.19H45.625zm0 0" transform="translate(-28.607)" style="fill:#0373c0"/>
</svg>
