<svg data-name="Component 42 – 1" xmlns="http://www.w3.org/2000/svg" width="30.132" height="28.822" viewBox="0 0 30.132 28.822">
    <path data-name="Path 71" d="M98.276 95.273a.987.987 0 0 1-.986-.988V88.2a.986.986 0 1 1 1.972 0v6.082a.987.987 0 0 1-.986.988" transform="translate(-73.861 -67.688)" style="fill:#474955"/>
    <path data-name="Path 72" d="M83.145 22c-1.6 0-3.041-1.125-4.068-3.167a15.424 15.424 0 0 1-1.426-6.78C77.651 6.837 82.16.661 82.352.4a.985.985 0 0 1 1.586 0c.192.261 4.7 6.436 4.7 11.649a15.424 15.424 0 0 1-1.426 6.78C86.186 20.872 84.741 22 83.145 22z" transform="translate(-58.508)" style="fill:#1073c0"/>
    <path data-name="Path 74" d="m19.36 44.573-4.44 2.612-2.029 1.2-2.165 1.274v11.933h17.266V49.655zM12.8 60.7v-6.02a2.538 2.538 0 0 1 5.075 0v6.02zm8.034-5.858v-1.97a.725.725 0 0 1 .725-.725h3.481a.725.725 0 0 1 .725.725v1.97a.725.725 0 0 1-.725.725h-3.476a.725.725 0 0 1-.725-.725" transform="translate(-8.264 -34.834)" style="fill:#85add6"/>
    <path data-name="Rectangle 37" transform="translate(4.792 25.863)" style="fill:#ffcf67" d="M0 0h5.075v.895H0z"/>
    <path data-name="Path 76" d="M27.384 115.417v1.754c0 .333-.355.6-.8.6H.8c-.44 0-.8-.269-.8-.6v-1.754a.72.72 0 0 1 .8-.6h25.789a.719.719 0 0 1 .8.6" transform="translate(0 -88.951)" style="fill:#474955"/>
    <path data-name="Path 77" d="M16.722 37.468h1.723a.706.706 0 0 1 .618.769v3.9a.706.706 0 0 1-.618.769h-1.723a.706.706 0 0 1-.618-.769v-3.9a.706.706 0 0 1 .618-.769" transform="translate(-12.407 -29.045)" style="fill:#1073c0"/>
    <path data-name="Path 78" d="M23.928 44.731v1.717a.331.331 0 0 1-.5.286l-9.275-5.355a1.171 1.171 0 0 0-1.171 0L3.71 46.735a.331.331 0 0 1-.5-.286v-1.718a1.171 1.171 0 0 1 .59-1.014l9.186-5.3a1.171 1.171 0 0 1 1.171 0l9.186 5.3a1.171 1.171 0 0 1 .585 1.014" transform="translate(-2.476 -29.683)" style="fill:#474955"/>
    <path data-name="Rectangle 38" style="fill:none" d="M0 0h30.131v28.822H0z"/>
</svg>
