<svg data-name="Component 49 – 1" xmlns="http://www.w3.org/2000/svg" width="29.052" height="29.213" viewBox="0 0 29.052 29.213">
    <path data-name="Path 111" d="m98.9 239.536-4.932 7.189a5.112 5.112 0 0 1-4.082 2.054H75.312l-.884-9 .884-.8a8.088 8.088 0 0 1 3.81-2.328 5.876 5.876 0 0 1 5.278 1.3c.34.291.544.565.969.565h4.513a1.712 1.712 0 0 1 0 3.423h-3.458a.856.856 0 0 0 0 1.712h4.02a2.049 2.049 0 0 0 1.256-.551l4.592-5.751a1.688 1.688 0 0 1 2.245-.223 1.732 1.732 0 0 1 .363 2.41z" transform="translate(-70.182 -222.989)" style="fill:#85add6"/>
    <path data-name="Path 114" d="m5.249 294.893-5.135-10.27a.856.856 0 0 1 .386-1.149l1.892-.946a2.571 2.571 0 0 1 3.445 1.148l3.6 7.208a2.566 2.566 0 0 1-1.147 3.446l-1.892.946a.857.857 0 0 1-1.149-.383z" transform="translate(-.023 -266.153)" style="fill:#3b3f4c"/>
    <path data-name="Path 115" d="M185.221 90a5.249 5.249 0 0 0-5.192 5.192v.913a.847.847 0 0 0 .856.856h8.673a.847.847 0 0 0 .856-.856v-.913A5.249 5.249 0 0 0 185.221 90z" transform="translate(-169.845 -84.865)" style="fill:#0373c0"/>
    <path data-name="Path 117" d="M213.509 0a3.483 3.483 0 0 0-3.48 3.423 3.481 3.481 0 0 0 6.961 0A3.483 3.483 0 0 0 213.509 0z" transform="translate(-198.132)" style="fill:#85add6"/>
</svg>
