<svg xmlns="http://www.w3.org/2000/svg" width="21.58" height="29.831" viewBox="0 0 21.58 29.831">
    <g data-name="Group 725">
        <path data-name="Path 477" d="M310.337 45.5v6.538h-1.274V45.5z" transform="translate(-293.508 -42.605)" style="fill:#85add6"/>
        <path data-name="Path 478" d="M186.969 45.5v6.538h-1.274V45.5z" transform="translate(-177.995 -42.605)" style="fill:#85add6"/>
        <path data-name="Path 479" d="M185.714 1.142v1.6a1.143 1.143 0 0 1-1.143 1.142h-.657a1.142 1.142 0 0 1-1.142-1.142v-.885h-5.057v.971a1.143 1.143 0 0 1-1.142 1.143h-.373a1.143 1.143 0 0 1-1.143-1.143V1.142A1.143 1.143 0 0 1 176.2 0h8.37a1.143 1.143 0 0 1 1.144 1.142z" transform="translate(-168.036)" style="fill:#464655"/>
        <path data-name="Path 480" d="M202.1 15.25v.886h-5.06v.971a1.143 1.143 0 0 1-1.14 1.143h-.2v-3z" transform="translate(-187.361 -14.279)" style="fill:#262631"/>
        <path data-name="Path 481" d="M82.186 126.431a35.518 35.518 0 0 1-4.921.848L67.024 126.1s-2.331-.376-2.236-3.72.376-14.833.376-14.833a2.77 2.77 0 0 1 1.058-1.444 4.211 4.211 0 0 1 .907-.522 20.671 20.671 0 0 1 5.475-.813l9.465.518s2.5.376 2.5 3.579v14.127a3 3 0 0 1-2.383 3.439z" transform="translate(-64.784 -98.098)" style="fill:#1073c0"/>
        <path data-name="Path 482" d="M79.526 126.34v13.208c0 4.026-2.261 4.673-2.261 4.673l-10.242-1.177s-2.331-.376-2.236-3.72.376-14.833.376-14.833a2.77 2.77 0 0 1 1.058-1.444c1.67-.5 5.569.185 9.312.291s3.993 3.002 3.993 3.002z" transform="translate(-64.784 -115.041)" style="fill:#85add6"/>
        <ellipse data-name="Ellipse 119" cx="2.705" cy="2.934" rx="2.705" ry="2.934" transform="translate(16.17 23.963)" style="fill:#464655"/>
        <path data-name="Path 483" d="M347.388 396.237a1.5 1.5 0 0 1-1.845.932 1.933 1.933 0 0 1 0-3.521 1.512 1.512 0 0 1 1.869.991s.272.314-.024 1.598z" transform="translate(-326.602 -368.511)" style="fill:#262631"/>
        <path data-name="Path 484" d="M346.677 396.491a1.246 1.246 0 1 1-1.133-1.761 1.818 1.818 0 0 1 1.133 1.761z" transform="translate(-326.602 -369.594)" style="fill:#85add6"/>
        <g data-name="Group 723">
            <path data-name="Path 485" d="M204.231 203.306a1.094 1.094 0 0 1-1.094-1.125l.356-12.489a1.094 1.094 0 0 1 2.187.062l-.356 12.489a1.094 1.094 0 0 1-1.093 1.063z" transform="translate(-194.326 -176.617)" style="fill:#f2f4fa"/>
        </g>
        <g data-name="Group 724">
            <path data-name="Path 486" d="m120.645 181.4-.356 12.489a1.094 1.094 0 0 1-2.187-.062l.356-12.489a1.094 1.094 0 0 1 2.187.062z" transform="translate(-114.706 -168.791)" style="fill:#f2f4fa"/>
        </g>
    </g>
</svg>
