<svg data-name="Component 52 – 1" xmlns="http://www.w3.org/2000/svg" width="30.212" height="23.592" viewBox="0 0 30.212 23.592">
    <defs>
        <clipPath id="y4fji8i68a">
            <path data-name="Rectangle 1836" style="fill:none" d="M0 0h30.212v23.592H0z"/>
        </clipPath>
    </defs>
    <g data-name="Group 49" style="clip-path:url(#y4fji8i68a)">
        <path data-name="Path 212" d="M46.592 0a.472.472 0 0 0-.463.482v.945a.473.473 0 1 0 .945.021V.482A.472.472 0 0 0 46.611 0h-.019" transform="translate(-39.963)" style="fill:#85add6"/>
        <path data-name="Path 213" d="M24.072 9.34a.472.472 0 0 0-.328.813l.666.666a.473.473 0 0 0 .683-.653l-.013-.014-.67-.67a.472.472 0 0 0-.339-.143" transform="translate(-20.445 -8.091)" style="fill:#85add6"/>
        <path data-name="Path 214" d="M64.709 9.338a.473.473 0 0 0-.324.143l-.67.67a.473.473 0 0 0 .657.68l.013-.013.666-.666a.473.473 0 0 0-.342-.813" transform="translate(-55.073 -8.09)" style="fill:#85add6"/>
        <path data-name="Path 215" d="M34.352 17.741a2.361 2.361 0 1 0 2.361 2.359 2.371 2.371 0 0 0-2.361-2.361" transform="translate(-27.711 -15.369)" style="fill:#1073c0"/>
        <path data-name="Path 216" d="M14.808 31.869a.472.472 0 0 0 .045.941h.947a.472.472 0 1 0 0-.941h-.99" transform="translate(-12.467 -27.607)" style="fill:#85add6"/>
        <path data-name="Path 217" d="M71.343 31.869a.472.472 0 0 0 .049.941h.945a.472.472 0 1 0 0-.941h-.994" transform="translate(-61.445 -27.607)" style="fill:#85add6"/>
        <path data-name="Path 218" d="M64.051 49.32h-.049a.472.472 0 0 0-.282.809l.67.67a.473.473 0 0 0 .68-.656l-.014-.013-.666-.666a.473.473 0 0 0-.339-.145" transform="translate(-55.078 -42.727)" style="fill:#85add6"/>
        <path data-name="Path 219" d="M24.727 49.332a.473.473 0 0 0-.324.143l-.666.666a.472.472 0 1 0 .653.683l.014-.013.67-.67a.472.472 0 0 0-.346-.809z" transform="translate(-20.437 -42.738)" style="fill:#85add6"/>
        <path data-name="Path 220" d="M46.592 56.56a.472.472 0 0 0-.463.478v.945a.473.473 0 0 0 .945.021v-.966a.472.472 0 0 0-.467-.478z" transform="translate(-39.963 -48.999)" style="fill:#85add6"/>
        <path data-name="Path 221" d="M46.089 21.259a.473.473 0 0 0-.38.221l-6.386 10.033-1.51-.753a.473.473 0 0 0-.642.227l-2.521 5.548 3.424 5.04h17.953l-4.274-14.323a.473.473 0 0 0-.237-.272l-2.706-1.354-2.293-4.126a.472.472 0 0 0-.428-.245" transform="translate(-30.018 -18.417)" style="fill:#1073c0"/>
        <path data-name="Path 222" d="M123.652 99a.473.473 0 0 0-.418.248l-2.26 4.167-.97-.969a.473.473 0 0 0-.694.031l-5.2 6.141 13.56.136-3.582-9.448a.473.473 0 0 0-.436-.306z" transform="translate(-98.859 -85.77)" style="fill:#85add6"/>
        <path data-name="Path 223" d="M99.258 169.414a.472.472 0 0 0 .049.944h16.035a.472.472 0 0 0 0-.944z" transform="translate(-85.601 -146.767)" style="fill:#464655"/>
        <path data-name="Path 224" d="m45.71 21.482-6.386 10.033-1.51-.753a.473.473 0 0 0-.642.227l-2.521 5.548 3.424 5.04h2.56l2.026-2.027a.472.472 0 0 0 .06-.6l-.729-1.1 3.5-3.5a.472.472 0 0 0-.091-.739l-1.845-1.109 3.352-3.351a.473.473 0 0 0-.158-.771l-1.943-.78 1.82-5.9-.108-.194a.466.466 0 0 0-.417-.244.476.476 0 0 0-.392.22z" transform="translate(-30.019 -18.42)" style="fill:#85add6"/>
        <path data-name="Path 225" d="M13.776 120.214a.473.473 0 0 0-.423.314l-2.364 6.616 6.582.158h.006l.468-.077-.474-2.836a.473.473 0 0 0-.615-.369l-1.011.335-1.716-3.855a.472.472 0 0 0-.453-.282" transform="translate(-9.52 -104.144)" style="fill:#1073c0"/>
        <path data-name="Path 226" d="M.45 169.414a.472.472 0 0 0 .045.944h11.324a.472.472 0 0 0 0-.944H.45" transform="translate(0 -146.767)" style="fill:#464655"/>
    </g>
</svg>
